<svg xmlns="http://www.w3.org/2000/svg" xmlns:xlink="http://www.w3.org/1999/xlink" width="40" zoomAndPan="magnify" viewBox="0 0 30 30.000001" height="40" preserveAspectRatio="xMidYMid meet" version="1.0"><defs><g/><clipPath id="id1"><path d="M 0.484375 0 L 29.515625 0 L 29.515625 29.03125 L 0.484375 29.03125 Z M 0.484375 0 " clip-rule="nonzero"/></clipPath></defs><g clip-path="url(#id1)"><path fill="#5e17eb" d="M 15.363281 0 C 7.144531 0 0.484375 6.660156 0.484375 14.878906 C 0.484375 23.097656 7.144531 29.757812 15.363281 29.757812 C 23.582031 29.757812 30.242188 23.097656 30.242188 14.878906 C 30.242188 6.660156 23.582031 0 15.363281 0 " fill-opacity="1" fill-rule="nonzero"/></g><g fill="#ffffff" fill-opacity="1"><g transform="translate(6.387409, 25.673966)"><g><path d="M 1.546875 -1.84375 C 2.410156 -1.988281 2.988281 -2.238281 3.28125 -2.59375 C 3.582031 -2.957031 3.734375 -3.59375 3.734375 -4.5 L 3.734375 -16.59375 C 3.734375 -17.269531 3.664062 -17.722656 3.53125 -17.953125 C 3.394531 -18.191406 3.125 -18.3125 2.71875 -18.3125 C 2.488281 -18.3125 2.265625 -18.300781 2.046875 -18.28125 C 1.835938 -18.257812 1.703125 -18.25 1.640625 -18.25 L 1.453125 -18.5 L 1.703125 -20.359375 L 5.703125 -20.328125 C 6.503906 -20.328125 7.394531 -20.34375 8.375 -20.375 C 9.351562 -20.40625 10.046875 -20.429688 10.453125 -20.453125 C 13.148438 -20.453125 15.085938 -19.882812 16.265625 -18.75 C 17.453125 -17.613281 18.046875 -16.164062 18.046875 -14.40625 C 18.046875 -13.164062 17.691406 -11.988281 16.984375 -10.875 C 16.285156 -9.769531 15.351562 -8.882812 14.1875 -8.21875 C 13.03125 -7.550781 11.796875 -7.21875 10.484375 -7.21875 L 7.828125 -7.21875 L 7.765625 -4.8125 C 7.765625 -3.988281 7.800781 -3.382812 7.875 -3 C 7.945312 -2.625 8.082031 -2.367188 8.28125 -2.234375 C 8.476562 -2.097656 8.800781 -2.03125 9.25 -2.03125 C 9.539062 -2.03125 9.820312 -2.039062 10.09375 -2.0625 C 10.375 -2.082031 10.566406 -2.09375 10.671875 -2.09375 L 10.765625 -1.9375 L 10.484375 0.09375 C 10.191406 0.09375 9.648438 0.078125 8.859375 0.046875 C 8.066406 0.015625 7.300781 0 6.5625 0 C 5.84375 0 4.882812 0.03125 3.6875 0.09375 C 2.5 0.15625 1.703125 0.207031 1.296875 0.25 Z M 10.703125 -9.59375 C 12.671875 -10.019531 13.65625 -11.46875 13.65625 -13.9375 C 13.65625 -15.289062 13.273438 -16.273438 12.515625 -16.890625 C 11.753906 -17.515625 10.550781 -17.828125 8.90625 -17.828125 C 8.601562 -17.828125 8.414062 -17.800781 8.34375 -17.75 C 8.269531 -17.695312 8.222656 -17.546875 8.203125 -17.296875 C 8.078125 -15.390625 7.972656 -12.960938 7.890625 -10.015625 Z M 10.703125 -9.59375 "/></g></g></g></svg>
